<?xml version="1.0" encoding="UTF-8" standalone="no"?>
<!-- Created with Inkscape (http://www.inkscape.org/) -->

<svg
   xmlns:dc="http://purl.org/dc/elements/1.1/"
   xmlns:cc="http://creativecommons.org/ns#"
   xmlns:rdf="http://www.w3.org/1999/02/22-rdf-syntax-ns#"
   xmlns:svg="http://www.w3.org/2000/svg"
   xmlns="http://www.w3.org/2000/svg"
   xmlns:sodipodi="http://sodipodi.sourceforge.net/DTD/sodipodi-0.dtd"
   xmlns:inkscape="http://www.inkscape.org/namespaces/inkscape"
   width="744.09448819"
   height="1052.3622047"
   id="svg2"
   version="1.1"
   inkscape:version="0.48.4 r9939"
   sodipodi:docname="New document 1">
  <defs
     id="defs4" />
  <sodipodi:namedview
     id="base"
     pagecolor="#ffffff"
     bordercolor="#666666"
     borderopacity="1.0"
     inkscape:pageopacity="0.0"
     inkscape:pageshadow="2"
     inkscape:zoom="0.35"
     inkscape:cx="375"
     inkscape:cy="520"
     inkscape:document-units="px"
     inkscape:current-layer="text2985"
     showgrid="false"
     inkscape:window-width="1366"
     inkscape:window-height="721"
     inkscape:window-x="-2"
     inkscape:window-y="-3"
     inkscape:window-maximized="1" />
  <metadata
     id="metadata7">
    <rdf:RDF>
      <cc:Work
         rdf:about="">
        <dc:format>image/svg+xml</dc:format>
        <dc:type
           rdf:resource="http://purl.org/dc/dcmitype/StillImage" />
        <dc:title></dc:title>
      </cc:Work>
    </rdf:RDF>
  </metadata>
  <g
     inkscape:label="Layer 1"
     inkscape:groupmode="layer"
     id="layer1">
    <g
       style="font-size:109.43855286px;font-style:normal;font-weight:normal;line-height:125%;letter-spacing:0px;word-spacing:0px;fill:#000000;fill-opacity:1;stroke:none;font-family:Sans"
       id="text2985">
      <path
         d="m 85.22,211.73525 c 7.053621,6e-5 13.466029,2.65408 19.23725,7.96208 0.39182,0.71254 0.58775,1.38941 0.5878,2.0306 l 0,0.21375 c -0.46317,2.52938 -1.72784,3.79405 -3.79401,3.79401 l -0.21375,0 c -0.96191,4e-5 -3.099375,-1.26463 -6.412414,-3.79401 -2.956872,-1.49619 -5.895892,-2.2443 -8.817071,-2.24435 l -1.17561,0 c -7.766168,5e-5 -13.644209,4.07905 -17.634141,12.23703 -0.926248,2.74312 -1.389367,5.21902 -1.389357,7.42771 -1e-5,7.90867 4.078995,13.9114 12.237026,18.0082 2.458068,0.92625 5.058656,1.38937 7.801771,1.38936 4.59553,10e-6 9.119841,-1.87028 13.572946,-5.61086 l 1.6031,-0.37406 0.64125,0 c 1.9593,1e-5 3.15272,1.26468 3.58026,3.79401 l 0,0.16031 c -5e-5,2.7431 -4.27499,5.75337 -12.82483,9.03082 -2.88562,0.53437 -5.02309,0.80155 -6.412415,0.80155 l -1.603104,0 c -7.374298,0 -14.232013,-3.47339 -20.573165,-10.42017 -3.883078,-5.48616 -5.824613,-11.15046 -5.824611,-16.9929 -2e-6,-8.9061 3.936505,-16.38724 11.809531,-22.44346 5.02304,-3.31302 10.224216,-4.96956 15.603544,-4.96962"
         style="font-variant:normal;font-stretch:normal;text-align:start;line-height:125%;writing-mode:lr-tb;text-anchor:start;font-family:Comfortaa;-inkscape-font-specification:Comfortaa;fill:#800080"
         id="path2990"
         inkscape:export-filename="/home/aravinda/sandbox/chinmaijois.github.com/static/logo.png"
         inkscape:export-xdpi="29.322887"
         inkscape:export-ydpi="29.322887" />
      <path
         d="m 118.67143,190.14679 0.80156,0 c 2.42245,0.49882 3.63369,1.56755 3.6337,3.2062 l 0,24.63437 c 5.16554,-4.45302 10.68733,-6.67955 16.5654,-6.6796 8.97735,5e-5 16.15568,4.23937 21.53503,12.71795 2.03055,3.77624 3.04585,7.33869 3.0459,10.68736 l 0,28.21463 c -5e-5,1.99497 -1.28254,3.20621 -3.84745,3.6337 l -0.16031,0 c -1.92377,0 -3.20625,-1.21123 -3.84745,-3.6337 l 0,-27.03902 c -4e-5,-7.26736 -3.75843,-12.50416 -11.27516,-15.71042 -1.81689,-0.53432 -3.63374,-0.8015 -5.45056,-0.80155 -7.48117,5e-5 -12.73578,3.97218 -15.76385,11.91641 -0.53438,1.71001 -0.80156,4.52434 -0.80155,8.44301 l 0,23.19157 c -1e-5,1.99497 -1.2825,3.20621 -3.84745,3.6337 l -0.16031,0 c -1.92373,0 -3.20621,-1.21123 -3.84745,-3.6337 l 0,-68.9869 c 0.53436,-2.52927 1.67435,-3.79394 3.41995,-3.79401"
         style="font-variant:normal;font-stretch:normal;text-align:start;line-height:125%;writing-mode:lr-tb;text-anchor:start;font-family:Comfortaa;-inkscape-font-specification:Comfortaa;fill:#800080"
         id="path2992"
         inkscape:export-filename="/home/aravinda/sandbox/chinmaijois.github.com/static/logo.png"
         inkscape:export-xdpi="29.322887"
         inkscape:export-ydpi="29.322887" />
      <path
         d="m 181.08561,197.84169 c 2.56495,0.6413 3.84743,1.78129 3.84745,3.41995 l 0,1.17561 c -2e-5,1.88816 -1.40718,3.02815 -4.22151,3.41995 -1.81686,6e-5 -3.02809,-1.33585 -3.6337,-4.00776 0.53436,-2.67177 1.87028,-4.00769 4.00776,-4.00775 m 0,13.67981 c 2.56495,0.6413 3.84743,1.78128 3.84745,3.41996 l 0,47.98624 c -2e-5,1.99497 -1.2825,3.20621 -3.84745,3.6337 l -0.21375,0 c -2.0306,0 -3.29527,-1.33592 -3.79401,-4.00776 l 0,-46.43657 c 0.32061,-3.06366 1.65653,-4.59551 4.00776,-4.59557"
         style="font-variant:normal;font-stretch:normal;text-align:start;line-height:125%;writing-mode:lr-tb;text-anchor:start;font-family:Comfortaa;-inkscape-font-specification:Comfortaa;fill:#800080"
         id="path2994"
         inkscape:export-filename="/home/aravinda/sandbox/chinmaijois.github.com/static/logo.png"
         inkscape:export-xdpi="29.322887"
         inkscape:export-ydpi="29.322887" />
      <path
         d="m 202.88783,211.89556 c 2.52933,0.6413 3.794,1.78128 3.79401,3.41996 l 0,4.38181 c 5.77116,-5.20113 12.07669,-7.80171 18.91662,-7.80177 7.51674,6e-5 14.17852,3.13501 19.98537,9.40488 4.23926,5.23684 6.35892,10.74083 6.35897,16.51197 l 0,25.38247 c -5e-5,1.74561 -1.26472,2.86778 -3.79401,3.36652 l -0.21375,0 c -2.52939,-0.46312 -3.79406,-1.72779 -3.79401,-3.79401 l 0,-22.33658 c -5e-5,-10.01046 -4.31061,-16.60099 -12.9317,-19.77161 -2.10188,-0.53433 -3.97217,-0.80151 -5.61087,-0.80156 l -0.5878,0 c -7.2318,5e-5 -12.82485,3.74062 -16.77915,11.22173 -1.03313,2.28 -1.54968,5.93151 -1.54967,10.95454 l 0,20.94723 c -1e-5,1.95935 -1.26468,3.15277 -3.79401,3.58026 l -0.21375,0 c -2.0306,0 -3.29527,-1.33592 -3.79401,-4.00776 l 0,-46.06251 c 0.32061,-3.06366 1.65653,-4.59551 4.00776,-4.59557"
         style="font-variant:normal;font-stretch:normal;text-align:start;line-height:125%;writing-mode:lr-tb;text-anchor:start;font-family:Comfortaa;-inkscape-font-specification:Comfortaa;fill:#800080"
         id="path2996"
         inkscape:export-filename="/home/aravinda/sandbox/chinmaijois.github.com/static/logo.png"
         inkscape:export-xdpi="29.322887"
         inkscape:export-ydpi="29.322887" />
      <path
         d="m 266.15698,212.80399 c 2.49371,0.64129 3.74057,1.74565 3.74058,3.31308 l 0,1.97716 c 4.34618,-3.52678 9.06642,-5.29019 14.16075,-5.29024 6.76863,5e-5 12.71792,3.13501 17.84789,9.40487 2.1018,-3.88302 6.41236,-6.82204 12.9317,-8.81707 l 4.48869,-0.5878 c 8.19358,5e-5 14.67723,3.91875 19.451,11.75609 1.56739,3.2775 2.35113,6.41245 2.35122,9.40488 l 0,29.28336 c -9e-5,1.70998 -1.24694,2.81434 -3.74058,3.31308 l -0.16031,0 c -2.49379,-0.42749 -3.74065,-1.67435 -3.74058,-3.74057 l 0,-28.42838 c -7e-5,-6.448 -3.40221,-10.90106 -10.20642,-13.3592 l -2.72528,-0.37405 -1.97716,0 c -5.41498,4e-5 -9.54743,3.135 -12.39734,9.40487 -0.39191,1.38939 -0.58785,2.565 -0.5878,3.52683 l 0,29.06962 c -0.46317,2.60059 -1.69221,3.90088 -3.68714,3.90088 l -0.21375,0 c -2.49376,-0.42749 -3.74061,-1.6031 -3.74057,-3.52683 l 0,-24.15343 c -4e-5,-6.69737 -0.90847,-10.88325 -2.72528,-12.55764 -2.81437,-3.77616 -6.48369,-5.66426 -11.00798,-5.6643 l -0.5878,0 c -6.23432,4e-5 -10.61613,3.33093 -13.14546,9.99268 -0.39188,1.60313 -0.58781,3.70498 -0.5878,6.30554 l 0,26.07715 c -10e-6,1.92373 -1.24687,3.09934 -3.74058,3.52683 l -0.16031,0 c -1.99497,0 -3.24183,-1.30029 -3.74057,-3.90088 l 0,-45.36784 c 0.28499,-2.99241 1.58528,-4.48864 3.90088,-4.48869"
         style="font-variant:normal;font-stretch:normal;text-align:start;line-height:125%;writing-mode:lr-tb;text-anchor:start;font-family:Comfortaa;-inkscape-font-specification:Comfortaa;fill:#800080"
         id="path2998"
         inkscape:export-filename="/home/aravinda/sandbox/chinmaijois.github.com/static/logo.png"
         inkscape:export-xdpi="29.322887"
         inkscape:export-ydpi="29.322887" />
      <path
         d="m 378.00019,211.89556 c 10.33107,6e-5 18.50689,5.05873 24.52748,15.17605 1.85242,4.09686 2.77866,8.35398 2.77872,12.77139 l 0,23.13814 c -6e-5,1.95935 -1.26473,3.15277 -3.79402,3.58026 l -0.21374,0 c -1.71003,0 -2.9747,-0.99748 -3.79401,-2.99246 l 0,-0.21375 0.21374,-4.96962 0,-0.21375 c -5.87809,5.59306 -12.20144,8.38958 -18.97006,8.38958 l -1.54967,0 c -9.26239,0 -16.99291,-4.649 -23.19156,-13.947 -2.24435,-4.48867 -3.36652,-9.01298 -3.36652,-13.57295 0,-10.15295 4.98742,-18.20409 14.9623,-24.15343 4.2393,-1.99492 8.37174,-2.9924 12.39734,-2.99246 m -19.55787,26.93215 0,0.5878 c -10e-6,7.94429 3.98993,13.9292 11.96984,17.95476 2.52932,0.92625 4.79147,1.38937 6.78647,1.38936 l 1.54967,0 c 6.62613,10e-6 12.09449,-3.31307 16.4051,-9.93924 1.56743,-3.13494 2.35117,-6.1274 2.35122,-8.97739 l 0,-0.80155 c -5e-5,-7.65924 -3.77625,-13.51946 -11.3286,-17.5807 -2.63626,-1.17557 -5.36153,-1.76337 -8.17583,-1.76342 l -0.21375,0 c -8.05117,5e-5 -14.10733,4.18593 -18.16851,12.55765 -0.78375,2.60062 -1.17562,4.79153 -1.17561,6.57273"
         style="font-variant:normal;font-stretch:normal;text-align:start;line-height:125%;writing-mode:lr-tb;text-anchor:start;font-family:Comfortaa;-inkscape-font-specification:Comfortaa;fill:#800080"
         id="path3000"
         inkscape:export-filename="/home/aravinda/sandbox/chinmaijois.github.com/static/logo.png"
         inkscape:export-xdpi="29.322887"
         inkscape:export-ydpi="29.322887" />
      <path
         d="m 422.19241,197.84169 c 2.56495,0.6413 3.84743,1.78129 3.84744,3.41995 l 0,1.17561 c -10e-6,1.88816 -1.40718,3.02815 -4.2215,3.41995 -1.81686,6e-5 -3.02809,-1.33585 -3.6337,-4.00776 0.53436,-2.67177 1.87028,-4.00769 4.00776,-4.00775 m 0,13.67981 c 2.56495,0.6413 3.84743,1.78128 3.84744,3.41996 l 0,47.98624 c -10e-6,1.99497 -1.28249,3.20621 -3.84744,3.6337 l -0.21375,0 c -2.03061,0 -3.29528,-1.33592 -3.79401,-4.00776 l 0,-46.43657 c 0.32061,-3.06366 1.65653,-4.59551 4.00776,-4.59557"
         style="font-variant:normal;font-stretch:normal;text-align:start;line-height:125%;writing-mode:lr-tb;text-anchor:start;font-family:Comfortaa;-inkscape-font-specification:Comfortaa;fill:#800080"
         id="path3002"
         inkscape:export-filename="/home/aravinda/sandbox/chinmaijois.github.com/static/logo.png"
         inkscape:export-xdpi="29.322887"
         inkscape:export-ydpi="29.322887" />
      <path
         d="m 486.26313,198.32262 c 2.63618,0.53443 3.95429,1.85254 3.95432,3.95432 -3e-5,2.20878 -1.38938,3.52689 -4.16807,3.95432 -2.35124,-0.6768 -3.52685,-1.79897 -3.52683,-3.36652 l 0,-1.17561 c -2e-5,-1.60303 1.24684,-2.7252 3.74058,-3.36651 m 0.21374,13.41263 c 2.49369,0.4988 3.74055,1.74566 3.74058,3.74058 l 0,49.58934 c -3e-5,9.83236 -4.66684,17.0107 -14.00044,21.53503 -3.27747,1.17559 -6.10962,1.76339 -8.49645,1.76341 l -0.21375,-0.21374 -0.21375,0 -0.16031,0.21374 -0.21374,0 c -2.24435,-2e-5 -3.56246,-1.44281 -3.95433,-4.32838 0,-1.95936 1.4428,-3.15278 4.32838,-3.58026 7.40989,-2e-5 12.34389,-3.74059 14.802,-11.22173 l 0.42749,-5.93148 0,-47.82593 c -2e-5,-2.06617 1.31809,-3.31303 3.95432,-3.74058"
         style="font-variant:normal;font-stretch:normal;text-align:start;line-height:125%;writing-mode:lr-tb;text-anchor:start;font-family:Comfortaa;-inkscape-font-specification:Comfortaa;fill:#ff6600"
         id="path3004"
         inkscape:export-filename="/home/aravinda/sandbox/chinmaijois.github.com/static/logo.png"
         inkscape:export-xdpi="29.322887"
         inkscape:export-ydpi="29.322887" />
      <path
         d="m 527.46289,212.16275 c 7.018,5e-5 13.37697,2.65407 19.07693,7.96208 5.41488,5.69996 8.12234,12.11237 8.1224,19.23724 -6e-5,10.18864 -4.82718,18.20415 -14.48137,24.04656 -4.16811,2.10185 -8.21149,3.15277 -12.13016,3.15277 l -1.6031,0 c -7.30305,0 -14.10733,-3.43776 -20.41285,-10.3133 -3.84746,-5.45054 -5.77118,-11.07921 -5.77118,-16.88603 0,-8.83484 3.90088,-16.24474 11.70266,-22.2297 4.98741,-3.31303 10.15297,-4.96957 15.49667,-4.96962 m -19.23725,26.61152 0,0.96186 c -10e-6,7.26742 3.50901,12.89609 10.52705,16.88603 2.52932,1.31811 5.23678,1.97717 8.12239,1.97716 l 1.17561,0 c 7.51674,1e-5 13.2701,-3.90087 17.26009,-11.70266 0.92619,-2.45807 1.38931,-4.84491 1.38936,-7.16053 l 0,-0.96186 c -5e-5,-6.05614 -2.77876,-11.15044 -8.33614,-15.28292 -3.24187,-2.2443 -6.94682,-3.36648 -11.11486,-3.36652 -8.22928,4e-5 -14.24982,4.2928 -18.06163,12.87827 -0.64126,2.10187 -0.96188,4.0256 -0.96187,5.77117"
         style="font-variant:normal;font-stretch:normal;text-align:start;line-height:125%;writing-mode:lr-tb;text-anchor:start;font-family:Comfortaa;-inkscape-font-specification:Comfortaa;fill:#ff6600"
         id="path3006"
         inkscape:export-filename="/home/aravinda/sandbox/chinmaijois.github.com/static/logo.png"
         inkscape:export-xdpi="29.322887"
         inkscape:export-ydpi="29.322887" />
      <path
         d="m 570.31921,197.84169 c 2.56495,0.6413 3.84743,1.78129 3.84744,3.41995 l 0,1.17561 c -10e-6,1.88816 -1.40718,3.02815 -4.2215,3.41995 -1.81686,6e-5 -3.02809,-1.33585 -3.6337,-4.00776 0.53436,-2.67177 1.87028,-4.00769 4.00776,-4.00775 m 0,13.67981 c 2.56495,0.6413 3.84743,1.78128 3.84744,3.41996 l 0,47.98624 c -10e-6,1.99497 -1.28249,3.20621 -3.84744,3.6337 l -0.21375,0 c -2.03061,0 -3.29528,-1.33592 -3.79401,-4.00776 l 0,-46.43657 c 0.32061,-3.06366 1.65653,-4.59551 4.00776,-4.59557"
         style="font-variant:normal;font-stretch:normal;text-align:start;line-height:125%;writing-mode:lr-tb;text-anchor:start;font-family:Comfortaa;-inkscape-font-specification:Comfortaa;fill:#ff6600"
         id="path3008"
         inkscape:export-filename="/home/aravinda/sandbox/chinmaijois.github.com/static/logo.png"
         inkscape:export-xdpi="29.322887"
         inkscape:export-ydpi="29.322887" />
      <path
         d="m 607.72495,212.21618 c 9.15547,6e-5 16.35162,4.15031 21.58847,12.45078 l 0.16031,1.54966 0,0.21375 c -5e-5,2.10188 -1.31815,3.34874 -3.95433,3.74058 -1.74564,3e-5 -3.52686,-1.51401 -5.34367,-4.54213 -3.66936,-3.56241 -7.81962,-5.34364 -12.45078,-5.34368 -6.09181,4e-5 -10.90112,2.90344 -14.42793,8.7102 l -0.16031,1.01529 c -10e-6,1.74564 1.97715,2.79656 5.93148,3.15278 15.17602,3.66935 23.47653,5.7712 24.90155,6.30554 3.81178,2.49374 5.71769,5.66432 5.71773,9.51175 l 0,0.16031 c -4e-5,5.48619 -4.02561,10.50924 -12.07671,15.06917 -3.45561,1.56748 -7.14275,2.35122 -11.06142,2.35122 -8.01553,0 -14.802,-3.75838 -20.35942,-11.27516 -0.53436,-0.78373 -0.80155,-1.51403 -0.80155,-2.19091 l 0,-1.17561 c 0,-1.92371 1.46061,-3.04588 4.38182,-3.36652 1.24685,2e-5 3.02808,1.65656 5.34368,4.96962 3.52681,3.27747 7.60582,4.9162 12.23703,4.91619 5.55739,1e-5 10.17076,-2.63621 13.84012,-7.90865 l 0.37406,-1.17561 0,-0.21374 c -4e-5,-1.70996 -1.17564,-2.68964 -3.52683,-2.93903 -17.7054,-3.9543 -27.07465,-6.39457 -28.10775,-7.32084 -3.27746,-2.49368 -4.91619,-5.52177 -4.91618,-9.08425 -10e-6,-4.98739 3.61588,-9.7967 10.84766,-14.42794 3.98994,-2.10179 7.94425,-3.15271 11.86297,-3.15277"
         style="font-variant:normal;font-stretch:normal;text-align:start;line-height:125%;writing-mode:lr-tb;text-anchor:start;font-family:Comfortaa;-inkscape-font-specification:Comfortaa;fill:#ff6600"
         id="path3010"
         inkscape:export-filename="/home/aravinda/sandbox/chinmaijois.github.com/static/logo.png"
         inkscape:export-xdpi="29.322887"
         inkscape:export-ydpi="29.322887" />
    </g>
  </g>
</svg>
